<?xml version="1.0" encoding="UTF-8" standalone="no"?>
<!-- Created with Inkscape (http://www.inkscape.org/) -->

<svg
   version="1.1"
   id="svg1"
   width="1023.3877"
   height="103.98971"
   viewBox="0 0 1023.3877 103.98971"
   sodipodi:docname="untitled_1.svg"
   inkscape:version="1.3.2 (1:1.3.2+202311252150+091e20ef0f)"
   xmlns:inkscape="http://www.inkscape.org/namespaces/inkscape"
   xmlns:sodipodi="http://sodipodi.sourceforge.net/DTD/sodipodi-0.dtd"
   xmlns="http://www.w3.org/2000/svg"
   xmlns:svg="http://www.w3.org/2000/svg">
  <defs
     id="defs1">
    <clipPath
       clipPathUnits="userSpaceOnUse"
       id="clipPath3">
      <path
         d="m 0,1063.0981 h 3216 v 339.8038 H 0 Z"
         transform="matrix(0.24720149,0,0,0.24720149,-466.99998,-264.79943)"
         clip-rule="evenodd"
         id="path3" />
    </clipPath>
    <clipPath
       clipPathUnits="userSpaceOnUse"
       id="clipPath4">
      <path
         d="m 0,1063.0981 h 3216 v 339.8038 H 0 Z"
         transform="matrix(0.32,0,0,0.32,13.44,13.440001)"
         clip-rule="evenodd"
         id="path4" />
    </clipPath>
    <clipPath
       clipPathUnits="userSpaceOnUse"
       id="clipPath5">
      <path
         d="m 0,1063.0981 h 3216 v 339.8038 H 0 Z"
         transform="matrix(0.32,0,0,0.32,13.44,13.440001)"
         clip-rule="evenodd"
         id="path5" />
    </clipPath>
    <clipPath
       clipPathUnits="userSpaceOnUse"
       id="clipPath6">
      <path
         d="m 1889.1472,1071.1887 h 752.4226 v 230.5811 h -752.4226 z"
         transform="matrix(0.32,0,0,0.32,13.44,13.440001)"
         clip-rule="evenodd"
         id="path6" />
    </clipPath>
    <clipPath
       clipPathUnits="userSpaceOnUse"
       id="clipPath7">
      <path
         d="m 0,1063.0981 h 3216 v 339.8038 H 0 Z"
         transform="matrix(0.32,0,0,0.32,13.44,13.440001)"
         clip-rule="evenodd"
         id="path7" />
    </clipPath>
    <clipPath
       clipPathUnits="userSpaceOnUse"
       id="clipPath8">
      <path
         d="M -4921.0868,278.31321 H 9447.7585 V 2090.6 H -4921.0868 Z"
         transform="matrix(0.32,0,0,0.32,13.44,13.440001)"
         clip-rule="evenodd"
         id="path8" />
    </clipPath>
    <clipPath
       clipPathUnits="userSpaceOnUse"
       id="clipPath9">
      <path
         d="m 2071.1845,1103.5505 h 388.3472 v 161.8114 h -388.3472 z"
         transform="matrix(0.32,0,0,0.32,13.44,13.440001)"
         clip-rule="evenodd"
         id="path9" />
    </clipPath>
    <clipPath
       clipPathUnits="userSpaceOnUse"
       id="clipPath10">
      <path
         d="M -4921.0868,278.31321 H 9447.7585 V 2090.6 H -4921.0868 Z"
         transform="matrix(0.32,0,0,0.32,13.44,13.440001)"
         clip-rule="evenodd"
         id="path10" />
    </clipPath>
    <clipPath
       clipPathUnits="userSpaceOnUse"
       id="clipPath12">
      <path
         d="M -4921.0868,278.31321 H 9447.7585 V 2090.6 H -4921.0868 Z"
         clip-rule="evenodd"
         id="path12" />
    </clipPath>
    <clipPath
       clipPathUnits="userSpaceOnUse"
       id="clipPath14">
      <path
         d="M -4921.0868,278.31321 H 9447.7585 V 2090.6 H -4921.0868 Z"
         clip-rule="evenodd"
         id="path14" />
    </clipPath>
    <clipPath
       clipPathUnits="userSpaceOnUse"
       id="clipPath16">
      <path
         d="M -4921.0868,278.31321 H 9447.7585 V 2090.6 H -4921.0868 Z"
         clip-rule="evenodd"
         id="path16" />
    </clipPath>
    <clipPath
       clipPathUnits="userSpaceOnUse"
       id="clipPath18">
      <path
         d="M -4921.0868,278.31321 H 9447.7585 V 2090.6 H -4921.0868 Z"
         clip-rule="evenodd"
         id="path18" />
    </clipPath>
    <clipPath
       clipPathUnits="userSpaceOnUse"
       id="clipPath20">
      <path
         d="M -4921.0868,278.31321 H 9447.7585 V 2090.6 H -4921.0868 Z"
         clip-rule="evenodd"
         id="path20" />
    </clipPath>
    <clipPath
       clipPathUnits="userSpaceOnUse"
       id="clipPath22">
      <path
         d="M -4921.0868,278.31321 H 9447.7585 V 2090.6 H -4921.0868 Z"
         clip-rule="evenodd"
         id="path22" />
    </clipPath>
    <clipPath
       clipPathUnits="userSpaceOnUse"
       id="clipPath24">
      <path
         d="M -4921.0868,278.31321 H 9447.7585 V 2090.6 H -4921.0868 Z"
         clip-rule="evenodd"
         id="path24" />
    </clipPath>
    <clipPath
       clipPathUnits="userSpaceOnUse"
       id="clipPath26">
      <path
         d="M -4921.0868,278.31321 H 9447.7585 V 2090.6 H -4921.0868 Z"
         clip-rule="evenodd"
         id="path26" />
    </clipPath>
    <clipPath
       clipPathUnits="userSpaceOnUse"
       id="clipPath28">
      <path
         d="M -4921.0868,278.31321 H 9447.7585 V 2090.6 H -4921.0868 Z"
         clip-rule="evenodd"
         id="path28" />
    </clipPath>
    <clipPath
       clipPathUnits="userSpaceOnUse"
       id="clipPath30">
      <path
         d="M -4921.0868,278.31321 H 9447.7585 V 2090.6 H -4921.0868 Z"
         clip-rule="evenodd"
         id="path30" />
    </clipPath>
    <clipPath
       clipPathUnits="userSpaceOnUse"
       id="clipPath32">
      <path
         d="M -4921.0868,278.31321 H 9447.7585 V 2090.6 H -4921.0868 Z"
         clip-rule="evenodd"
         id="path32" />
    </clipPath>
    <clipPath
       clipPathUnits="userSpaceOnUse"
       id="clipPath34">
      <path
         d="M -4921.0868,278.31321 H 9447.7585 V 2090.6 H -4921.0868 Z"
         clip-rule="evenodd"
         id="path34" />
    </clipPath>
    <clipPath
       clipPathUnits="userSpaceOnUse"
       id="clipPath35">
      <path
         d="M -4921.0868,278.31321 H 9447.7585 V 2090.6 H -4921.0868 Z"
         transform="matrix(0.32,0,0,0.32,13.44,13.440001)"
         clip-rule="evenodd"
         id="path35" />
    </clipPath>
    <clipPath
       clipPathUnits="userSpaceOnUse"
       id="clipPath36">
      <path
         d="m 0,1063.0981 h 3216 v 339.8038 H 0 Z"
         transform="matrix(0.32,0,0,0.32,13.44,13.440001)"
         clip-rule="evenodd"
         id="path36" />
    </clipPath>
    <clipPath
       clipPathUnits="userSpaceOnUse"
       id="clipPath37">
      <path
         d="m 0,1063.0981 h 3216 v 339.8038 H 0 Z"
         transform="matrix(0.32,0,0,0.32,13.44,13.440001)"
         clip-rule="evenodd"
         id="path37" />
    </clipPath>
    <clipPath
       clipPathUnits="userSpaceOnUse"
       id="clipPath39">
      <path
         d="m 0,1063.0981 h 3216 v 339.8038 H 0 Z"
         transform="matrix(0.24720149,0,0,0.24720149,-466.99998,-264.79943)"
         clip-rule="evenodd"
         id="path39" />
    </clipPath>
    <clipPath
       clipPathUnits="userSpaceOnUse"
       id="clipPath41">
      <path
         d="m 0,1063.0981 h 3216 v 339.8038 H 0 Z"
         transform="matrix(0.24720149,0,0,0.24720149,-236.99999,-264.79943)"
         clip-rule="evenodd"
         id="path41" />
    </clipPath>
    <clipPath
       clipPathUnits="userSpaceOnUse"
       id="clipPath42">
      <path
         d="m 0,1063.0981 h 3216 v 339.8038 H 0 Z"
         transform="matrix(0.32,0,0,0.32,13.44,13.440001)"
         clip-rule="evenodd"
         id="path42" />
    </clipPath>
    <clipPath
       clipPathUnits="userSpaceOnUse"
       id="clipPath43">
      <path
         d="m 0,1063.0981 h 3216 v 339.8038 H 0 Z"
         transform="matrix(0.32,0,0,0.32,13.44,13.440001)"
         clip-rule="evenodd"
         id="path43" />
    </clipPath>
    <clipPath
       clipPathUnits="userSpaceOnUse"
       id="clipPath44">
      <path
         d="m 958.73207,1071.1887 h 711.96983 v 230.5811 H 958.73207 Z"
         transform="matrix(0.32,0,0,0.32,13.44,13.440001)"
         clip-rule="evenodd"
         id="path44" />
    </clipPath>
    <clipPath
       clipPathUnits="userSpaceOnUse"
       id="clipPath45">
      <path
         d="m 0,1063.0981 h 3216 v 339.8038 H 0 Z"
         transform="matrix(0.32,0,0,0.32,13.44,13.440001)"
         clip-rule="evenodd"
         id="path45" />
    </clipPath>
    <clipPath
       clipPathUnits="userSpaceOnUse"
       id="clipPath46">
      <path
         d="M -7323.9849,278.31321 H 9949.3736 V 2090.6 H -7323.9849 Z"
         transform="matrix(0.32,0,0,0.32,13.44,13.440001)"
         clip-rule="evenodd"
         id="path46" />
    </clipPath>
    <clipPath
       clipPathUnits="userSpaceOnUse"
       id="clipPath47">
      <path
         d="m 1067.9543,1103.5505 h 493.5245 v 161.8114 h -493.5245 z"
         transform="matrix(0.32,0,0,0.32,13.44,13.440001)"
         clip-rule="evenodd"
         id="path47" />
    </clipPath>
    <clipPath
       clipPathUnits="userSpaceOnUse"
       id="clipPath48">
      <path
         d="M -7323.9849,278.31321 H 9949.3736 V 2090.6 H -7323.9849 Z"
         transform="matrix(0.32,0,0,0.32,13.44,13.440001)"
         clip-rule="evenodd"
         id="path48" />
    </clipPath>
    <clipPath
       clipPathUnits="userSpaceOnUse"
       id="clipPath50">
      <path
         d="M -7323.9849,278.31321 H 9949.3736 V 2090.6 H -7323.9849 Z"
         clip-rule="evenodd"
         id="path50" />
    </clipPath>
    <clipPath
       clipPathUnits="userSpaceOnUse"
       id="clipPath52">
      <path
         d="M -7323.9849,278.31321 H 9949.3736 V 2090.6 H -7323.9849 Z"
         clip-rule="evenodd"
         id="path52" />
    </clipPath>
    <clipPath
       clipPathUnits="userSpaceOnUse"
       id="clipPath54">
      <path
         d="M -7323.9849,278.31321 H 9949.3736 V 2090.6 H -7323.9849 Z"
         clip-rule="evenodd"
         id="path54" />
    </clipPath>
    <clipPath
       clipPathUnits="userSpaceOnUse"
       id="clipPath56">
      <path
         d="M -7323.9849,278.31321 H 9949.3736 V 2090.6 H -7323.9849 Z"
         clip-rule="evenodd"
         id="path56" />
    </clipPath>
    <clipPath
       clipPathUnits="userSpaceOnUse"
       id="clipPath58">
      <path
         d="M -7323.9849,278.31321 H 9949.3736 V 2090.6 H -7323.9849 Z"
         clip-rule="evenodd"
         id="path58" />
    </clipPath>
    <clipPath
       clipPathUnits="userSpaceOnUse"
       id="clipPath60">
      <path
         d="M -7323.9849,278.31321 H 9949.3736 V 2090.6 H -7323.9849 Z"
         clip-rule="evenodd"
         id="path60" />
    </clipPath>
    <clipPath
       clipPathUnits="userSpaceOnUse"
       id="clipPath62">
      <path
         d="M -7323.9849,278.31321 H 9949.3736 V 2090.6 H -7323.9849 Z"
         clip-rule="evenodd"
         id="path62" />
    </clipPath>
    <clipPath
       clipPathUnits="userSpaceOnUse"
       id="clipPath64">
      <path
         d="M -7323.9849,278.31321 H 9949.3736 V 2090.6 H -7323.9849 Z"
         clip-rule="evenodd"
         id="path64" />
    </clipPath>
    <clipPath
       clipPathUnits="userSpaceOnUse"
       id="clipPath66">
      <path
         d="M -7323.9849,278.31321 H 9949.3736 V 2090.6 H -7323.9849 Z"
         clip-rule="evenodd"
         id="path66" />
    </clipPath>
    <clipPath
       clipPathUnits="userSpaceOnUse"
       id="clipPath68">
      <path
         d="M -7323.9849,278.31321 H 9949.3736 V 2090.6 H -7323.9849 Z"
         clip-rule="evenodd"
         id="path68" />
    </clipPath>
    <clipPath
       clipPathUnits="userSpaceOnUse"
       id="clipPath70">
      <path
         d="M -7323.9849,278.31321 H 9949.3736 V 2090.6 H -7323.9849 Z"
         clip-rule="evenodd"
         id="path70" />
    </clipPath>
    <clipPath
       clipPathUnits="userSpaceOnUse"
       id="clipPath72">
      <path
         d="M -7323.9849,278.31321 H 9949.3736 V 2090.6 H -7323.9849 Z"
         clip-rule="evenodd"
         id="path72" />
    </clipPath>
    <clipPath
       clipPathUnits="userSpaceOnUse"
       id="clipPath74">
      <path
         d="M -7323.9849,278.31321 H 9949.3736 V 2090.6 H -7323.9849 Z"
         clip-rule="evenodd"
         id="path74" />
    </clipPath>
    <clipPath
       clipPathUnits="userSpaceOnUse"
       id="clipPath76">
      <path
         d="M -7323.9849,278.31321 H 9949.3736 V 2090.6 H -7323.9849 Z"
         clip-rule="evenodd"
         id="path76" />
    </clipPath>
    <clipPath
       clipPathUnits="userSpaceOnUse"
       id="clipPath78">
      <path
         d="M -7323.9849,278.31321 H 9949.3736 V 2090.6 H -7323.9849 Z"
         clip-rule="evenodd"
         id="path78" />
    </clipPath>
    <clipPath
       clipPathUnits="userSpaceOnUse"
       id="clipPath79">
      <path
         d="M -7323.9849,278.31321 H 9949.3736 V 2090.6 H -7323.9849 Z"
         transform="matrix(0.32,0,0,0.32,13.44,13.440001)"
         clip-rule="evenodd"
         id="path79" />
    </clipPath>
    <clipPath
       clipPathUnits="userSpaceOnUse"
       id="clipPath80">
      <path
         d="m 0,1063.0981 h 3216 v 339.8038 H 0 Z"
         transform="matrix(0.32,0,0,0.32,13.44,13.440001)"
         clip-rule="evenodd"
         id="path80" />
    </clipPath>
    <clipPath
       clipPathUnits="userSpaceOnUse"
       id="clipPath81">
      <path
         d="m 0,1063.0981 h 3216 v 339.8038 H 0 Z"
         transform="matrix(0.32,0,0,0.32,13.44,13.440001)"
         clip-rule="evenodd"
         id="path81" />
    </clipPath>
    <clipPath
       clipPathUnits="userSpaceOnUse"
       id="clipPath83">
      <path
         d="m 0,1063.0981 h 3216 v 339.8038 H 0 Z"
         transform="matrix(0.24720149,0,0,0.24720149,-236.99999,-264.79943)"
         clip-rule="evenodd"
         id="path83" />
    </clipPath>
    <clipPath
       clipPathUnits="userSpaceOnUse"
       id="clipPath85">
      <path
         d="m 0,1063.0981 h 3216 v 339.8038 H 0 Z"
         clip-rule="evenodd"
         id="path85" />
    </clipPath>
    <clipPath
       clipPathUnits="userSpaceOnUse"
       id="clipPath86">
      <path
         d="m 0,1063.0981 h 3216 v 339.8038 H 0 Z"
         transform="matrix(0.32,0,0,0.32,13.44,13.440001)"
         clip-rule="evenodd"
         id="path86" />
    </clipPath>
    <clipPath
       clipPathUnits="userSpaceOnUse"
       id="clipPath87">
      <path
         d="m 0,1063.0981 h 3216 v 339.8038 H 0 Z"
         transform="matrix(0.24720149,0,0,0.24720149,-144.09375,-296.29943)"
         clip-rule="evenodd"
         id="path87" />
    </clipPath>
    <clipPath
       clipPathUnits="userSpaceOnUse"
       id="clipPath88">
      <path
         d="m 0,1063.0981 h 3216 v 339.8038 H 0 Z"
         transform="matrix(0.24720149,0,0,0.24720149,-149.09374,-301.29943)"
         clip-rule="evenodd"
         id="path88" />
    </clipPath>
    <clipPath
       clipPathUnits="userSpaceOnUse"
       id="clipPath90">
      <path
         d="m 0,1063.0981 h 3216 v 339.8038 H 0 Z"
         transform="matrix(0.24720149,0,0,0.24720149,-142,-282.79943)"
         clip-rule="evenodd"
         id="path90" />
    </clipPath>
    <clipPath
       clipPathUnits="userSpaceOnUse"
       id="clipPath92">
      <path
         d="m 0,1063.0981 h 3216 v 339.8038 H 0 Z"
         transform="matrix(0.24720149,0,0,0.24720149,-1.9999998,-277.79943)"
         clip-rule="evenodd"
         id="path92" />
    </clipPath>
    <clipPath
       clipPathUnits="userSpaceOnUse"
       id="clipPath93">
      <path
         d="m 0,1063.0981 h 3216 v 339.8038 H 0 Z"
         transform="matrix(0.32,0,0,0.32,13.44,13.440001)"
         clip-rule="evenodd"
         id="path93" />
    </clipPath>
    <clipPath
       clipPathUnits="userSpaceOnUse"
       id="clipPath94">
      <path
         d="m 0,1063.0981 h 3216 v 339.8038 H 0 Z"
         transform="matrix(0.32,0,0,0.32,13.44,13.440001)"
         clip-rule="evenodd"
         id="path94" />
    </clipPath>
    <clipPath
       clipPathUnits="userSpaceOnUse"
       id="clipPath95">
      <path
         d="M 8.090566,1123.7774 H 133.49434 v 125.4037 H 8.090566 Z"
         transform="matrix(0.32,0,0,0.32,13.44,13.440001)"
         clip-rule="evenodd"
         id="path95" />
    </clipPath>
    <clipPath
       clipPathUnits="userSpaceOnUse"
       id="clipPath96">
      <path
         d="m 0,1063.0981 h 3216 v 339.8038 H 0 Z"
         transform="matrix(0.32,0,0,0.32,13.44,13.440001)"
         clip-rule="evenodd"
         id="path96" />
    </clipPath>
    <clipPath
       clipPathUnits="userSpaceOnUse"
       id="clipPath97">
      <path
         d="m 0,1115.6868 h 137.53962 v 137.5396 H 0 Z"
         transform="matrix(0.32,0,0,0.32,13.44,13.440001)"
         clip-rule="evenodd"
         id="path97" />
    </clipPath>
    <clipPath
       clipPathUnits="userSpaceOnUse"
       id="clipPath98">
      <path
         d="M 4.0448785,1119.7317 H 141.5845 v 137.5396 H 4.0448785 Z"
         transform="matrix(0.32,0,0,0.32,13.44,13.440001)"
         clip-rule="evenodd"
         id="path98" />
    </clipPath>
    <clipPath
       clipPathUnits="userSpaceOnUse"
       id="clipPath99">
      <path
         d="m 0,1115.6868 h 137.53962 v 137.5396 H 0 Z"
         transform="matrix(0.32,0,0,0.32,13.44,13.440001)"
         clip-rule="evenodd"
         id="path99" />
    </clipPath>
    <clipPath
       clipPathUnits="userSpaceOnUse"
       id="clipPath101">
      <path
         d="m 0,1115.6868 h 137.53962 v 137.5396 H 0 Z"
         transform="matrix(0.24720149,0,0,0.24720149,-0.99989988,-276.79934)"
         clip-rule="evenodd"
         id="path101" />
    </clipPath>
    <clipPath
       clipPathUnits="userSpaceOnUse"
       id="clipPath102">
      <path
         d="m 0,1115.6868 h 137.53962 v 137.5396 H 0 Z"
         transform="matrix(0.32,0,0,0.32,13.44,13.440001)"
         clip-rule="evenodd"
         id="path102" />
    </clipPath>
    <clipPath
       clipPathUnits="userSpaceOnUse"
       id="clipPath103">
      <path
         d="m 0,1063.0981 h 3216 v 339.8038 H 0 Z"
         transform="matrix(0.32,0,0,0.32,13.44,13.440001)"
         clip-rule="evenodd"
         id="path103" />
    </clipPath>
    <clipPath
       clipPathUnits="userSpaceOnUse"
       id="clipPath104">
      <path
         d="m 0,1063.0981 h 3216 v 339.8038 H 0 Z"
         transform="matrix(0.32,0,0,0.32,13.44,13.440001)"
         clip-rule="evenodd"
         id="path104" />
    </clipPath>
    <clipPath
       clipPathUnits="userSpaceOnUse"
       id="clipPath106">
      <path
         d="m 0,1063.0981 h 3216 v 339.8038 H 0 Z"
         transform="matrix(0.24720149,0,0,0.24720149,-1.9999998,-277.79943)"
         clip-rule="evenodd"
         id="path106" />
    </clipPath>
    <clipPath
       clipPathUnits="userSpaceOnUse"
       id="clipPath108">
      <path
         d="m 0,1063.0981 h 3216 v 339.8038 H 0 Z"
         transform="matrix(0.24720149,0,0,0.24720149,-761.99998,-276.79943)"
         clip-rule="evenodd"
         id="path108" />
    </clipPath>
    <clipPath
       clipPathUnits="userSpaceOnUse"
       id="clipPath109">
      <path
         d="m 0,1063.0981 h 3216 v 339.8038 H 0 Z"
         transform="matrix(0.32,0,0,0.32,13.44,13.440001)"
         clip-rule="evenodd"
         id="path109" />
    </clipPath>
    <clipPath
       clipPathUnits="userSpaceOnUse"
       id="clipPath110">
      <path
         d="m 0,1063.0981 h 3216 v 339.8038 H 0 Z"
         transform="matrix(0.32,0,0,0.32,13.44,13.440001)"
         clip-rule="evenodd"
         id="path110" />
    </clipPath>
    <clipPath
       clipPathUnits="userSpaceOnUse"
       id="clipPath111">
      <path
         d="m 3082.5057,1119.7321 h 125.4037 v 133.4943 h -125.4037 z"
         transform="matrix(0.32,0,0,0.32,13.44,13.440001)"
         clip-rule="evenodd"
         id="path111" />
    </clipPath>
    <clipPath
       clipPathUnits="userSpaceOnUse"
       id="clipPath112">
      <path
         d="m 0,1063.0981 h 3216 v 339.8038 H 0 Z"
         transform="matrix(0.32,0,0,0.32,13.44,13.440001)"
         clip-rule="evenodd"
         id="path112" />
    </clipPath>
    <clipPath
       clipPathUnits="userSpaceOnUse"
       id="clipPath113">
      <path
         d="m 3074.4151,1106.7872 h 137.5396 v 155.3388 h -137.5396 z"
         transform="matrix(0.32,0,0,0.32,13.44,13.440001)"
         clip-rule="evenodd"
         id="path113" />
    </clipPath>
    <clipPath
       clipPathUnits="userSpaceOnUse"
       id="clipPath114">
      <path
         d="m 3078.46,1115.6864 h 137.5396 v 145.6302 H 3078.46 Z"
         transform="matrix(0.32,0,0,0.32,13.44,13.440001)"
         clip-rule="evenodd"
         id="path114" />
    </clipPath>
    <clipPath
       clipPathUnits="userSpaceOnUse"
       id="clipPath115">
      <path
         d="m 3074.4151,1106.7872 h 137.5396 v 155.3388 h -137.5396 z"
         transform="matrix(0.32,0,0,0.32,13.44,13.440001)"
         clip-rule="evenodd"
         id="path115" />
    </clipPath>
    <clipPath
       clipPathUnits="userSpaceOnUse"
       id="clipPath117">
      <path
         d="m 3074.4151,1106.7872 h 137.5396 v 155.3388 h -137.5396 z"
         transform="matrix(0.24720149,0,0,0.24720149,-760.99988,-275.79933)"
         clip-rule="evenodd"
         id="path117" />
    </clipPath>
    <clipPath
       clipPathUnits="userSpaceOnUse"
       id="clipPath118">
      <path
         d="m 3074.4151,1106.7872 h 137.5396 v 155.3388 h -137.5396 z"
         transform="matrix(0.32,0,0,0.32,13.44,13.440001)"
         clip-rule="evenodd"
         id="path118" />
    </clipPath>
    <clipPath
       clipPathUnits="userSpaceOnUse"
       id="clipPath119">
      <path
         d="m 0,1063.0981 h 3216 v 339.8038 H 0 Z"
         transform="matrix(0.32,0,0,0.32,13.44,13.440001)"
         clip-rule="evenodd"
         id="path119" />
    </clipPath>
    <clipPath
       clipPathUnits="userSpaceOnUse"
       id="clipPath120">
      <path
         d="m 0,1063.0981 h 3216 v 339.8038 H 0 Z"
         transform="matrix(0.32,0,0,0.32,13.44,13.440001)"
         clip-rule="evenodd"
         id="path120" />
    </clipPath>
    <clipPath
       clipPathUnits="userSpaceOnUse"
       id="clipPath122">
      <path
         d="m 0,1063.0981 h 3216 v 339.8038 H 0 Z"
         transform="matrix(0.24720149,0,0,0.24720149,-761.99998,-276.79943)"
         clip-rule="evenodd"
         id="path122" />
    </clipPath>
    <clipPath
       clipPathUnits="userSpaceOnUse"
       id="clipPath124">
      <path
         d="m 0,1063.0981 h 3216 v 339.8038 H 0 Z"
         clip-rule="evenodd"
         id="path124" />
    </clipPath>
    <clipPath
       clipPathUnits="userSpaceOnUse"
       id="clipPath126">
      <path
         d="m 0,1063.0981 h 3216 v 339.8038 H 0 Z"
         transform="matrix(0.24720149,0,0,0.24720149,-211.99999,-57.799438)"
         clip-rule="evenodd"
         id="path126" />
    </clipPath>
    <clipPath
       clipPathUnits="userSpaceOnUse"
       id="clipPath128">
      <path
         d="m 0,1063.0981 h 3216 v 339.8038 H 0 Z"
         clip-rule="evenodd"
         id="path128" />
    </clipPath>
    <clipPath
       clipPathUnits="userSpaceOnUse"
       id="clipPath130">
      <path
         d="m 0,1063.0981 h 3216 v 339.8038 H 0 Z"
         transform="matrix(0.24720149,0,0,0.24720149,-211.99999,-57.799438)"
         clip-rule="evenodd"
         id="path130" />
    </clipPath>
    <clipPath
       clipPathUnits="userSpaceOnUse"
       id="clipPath132">
      <path
         d="m 0,1063.0981 h 3216 v 339.8038 H 0 Z"
         clip-rule="evenodd"
         id="path132" />
    </clipPath>
    <clipPath
       clipPathUnits="userSpaceOnUse"
       id="clipPath134">
      <path
         d="m 0,1063.0981 h 3216 v 339.8038 H 0 Z"
         transform="matrix(0.24720149,0,0,0.24720149,-211.99999,-57.799438)"
         clip-rule="evenodd"
         id="path134" />
    </clipPath>
    <clipPath
       clipPathUnits="userSpaceOnUse"
       id="clipPath136">
      <path
         d="m 0,1063.0981 h 3216 v 339.8038 H 0 Z"
         transform="matrix(0.24720149,0,0,0.24720149,-211.99999,-57.799438)"
         clip-rule="evenodd"
         id="path136" />
    </clipPath>
    <clipPath
       clipPathUnits="userSpaceOnUse"
       id="clipPath138">
      <path
         d="m 0,1063.0981 h 3216 v 339.8038 H 0 Z"
         clip-rule="evenodd"
         id="path138" />
    </clipPath>
    <clipPath
       clipPathUnits="userSpaceOnUse"
       id="clipPath140">
      <path
         d="m 0,1063.0981 h 3216 v 339.8038 H 0 Z"
         transform="matrix(0.24720149,0,0,0.24720149,-211.99999,-57.799438)"
         clip-rule="evenodd"
         id="path140" />
    </clipPath>
    <clipPath
       clipPathUnits="userSpaceOnUse"
       id="clipPath142">
      <path
         d="m 0,1063.0981 h 3216 v 339.8038 H 0 Z"
         clip-rule="evenodd"
         id="path142" />
    </clipPath>
    <clipPath
       clipPathUnits="userSpaceOnUse"
       id="clipPath144">
      <path
         d="m 0,1063.0981 h 3216 v 339.8038 H 0 Z"
         transform="matrix(0.24720149,0,0,0.24720149,-211.99999,-57.799438)"
         clip-rule="evenodd"
         id="path144" />
    </clipPath>
    <clipPath
       clipPathUnits="userSpaceOnUse"
       id="clipPath146">
      <path
         d="m 0,1063.0981 h 3216 v 339.8038 H 0 Z"
         clip-rule="evenodd"
         id="path146" />
    </clipPath>
  </defs>
  <sodipodi:namedview
     id="namedview1"
     pagecolor="#ffffff"
     bordercolor="#000000"
     borderopacity="0.25"
     inkscape:showpageshadow="2"
     inkscape:pageopacity="0.0"
     inkscape:pagecheckerboard="0"
     inkscape:deskcolor="#d1d1d1"
     inkscape:zoom="0.98651961"
     inkscape:cx="607.69193"
     inkscape:cy="52.203727"
     inkscape:window-width="1920"
     inkscape:window-height="1011"
     inkscape:window-x="0"
     inkscape:window-y="0"
     inkscape:window-maximized="1"
     inkscape:current-layer="g1">
    <inkscape:page
       x="0"
       y="0"
       inkscape:label="1"
       id="page1"
       width="1023.3877"
       height="103.98971"
       margin="0"
       bleed="0" />
  </sodipodi:namedview>
  <g
     id="g1"
     inkscape:groupmode="layer"
     inkscape:label="1"
     transform="translate(-15.658906,-355.85031)">
    <path
       id="path2"
       d="M 0,0 H 185 V 56 H 0 Z"
       style="fill:#ffffff;fill-opacity:1;fill-rule:nonzero;stroke:none"
       transform="matrix(1.2944906,0,0,1.2944906,617.96709,356.22038)"
       clip-path="url(#clipPath3)" />
    <g
       id="g3"
       clip-path="url(#clipPath4)" />
    <g
       id="g4"
       clip-path="url(#clipPath5)" />
    <g
       id="g7"
       clip-path="url(#clipPath7)">
      <g
         clip-path="url(#clipPath6)"
         id="g6" />
    </g>
    <g
       id="g8"
       clip-path="url(#clipPath8)" />
    <g
       id="g10"
       clip-path="url(#clipPath10)">
      <g
         clip-path="url(#clipPath9)"
         id="g9" />
    </g>
    <path
       id="path11"
       d="m 2079.2755,1174.3434 h 360.0302 v 4.0453 h -360.0302 z"
       style="fill:#000000;fill-opacity:1;fill-rule:evenodd;stroke:none"
       transform="matrix(0.32,0,0,0.32,13.44,13.440001)"
       clip-path="url(#clipPath12)" />
    <path
       id="path13"
       d="m 2267.95,1158.1623 v -0.8217 c -4.2349,0 -5.3726,-1.0746 -5.3726,-3.4765 v -33.816 l -0.5057,-0.1896 -10.1132,5.183 v 0.7585 l 1.517,-0.5689 c 1.0113,-0.3792 1.9594,-0.6953 2.5283,-0.6953 1.2009,0 1.7066,0.885 1.7066,2.7812 v 25.4726 c 0,3.0972 -1.201,4.2981 -5.3727,4.551 v 0.8217 z"
       style="fill:#000000;fill-opacity:1;fill-rule:nonzero;stroke:none"
       transform="matrix(0.32,0,0,0.32,13.44,13.440001)"
       clip-path="url(#clipPath14)" />
    <path
       id="path15"
       d="m 2105.4434,1202.0283 h -13.9689 v 0.8849 c 3.1604,0.1896 4.0453,1.0113 4.0453,2.4651 0,0.8849 -0.316,2.0858 -0.6953,3.4764 l -6.8264,25.0934 c -0.8217,3.1604 -1.6434,3.7293 -4.7406,4.2981 v 0.8849 H 2097.1 v -0.8849 c -3.2868,-0.4424 -3.9189,-0.6321 -3.9189,-2.2754 0,-1.0746 0.3161,-2.4651 0.8217,-4.2982 l 6.8264,-24.3981 c 0.9482,-3.4764 1.4538,-3.9821 4.6142,-4.3613 z"
       style="fill:#000000;fill-opacity:1;fill-rule:nonzero;stroke:none"
       transform="matrix(0.32,0,0,0.32,13.44,13.440001)"
       clip-path="url(#clipPath16)" />
    <path
       id="path17"
       d="m 2132.2434,1224.7198 c 0,-1.7698 -1.517,-3.4132 -3.35,-3.4132 -1.833,0 -3.4764,1.7066 -3.4764,3.4132 0,1.7066 1.6434,3.4132 3.4764,3.4132 1.833,0 3.35,-1.5802 3.35,-3.4132 z"
       style="fill:#000000;fill-opacity:1;fill-rule:nonzero;stroke:none"
       transform="matrix(0.32,0,0,0.32,13.44,13.440001)"
       clip-path="url(#clipPath18)" />
    <path
       id="path19"
       d="m 2170.1679,1214.0377 h -0.7585 c -0.5056,0.7585 -0.8849,1.0114 -1.7066,1.0114 -0.5056,0 -1.0113,-0.063 -2.0858,-0.3793 -1.3906,-0.4424 -2.2123,-0.5689 -3.1604,-0.5689 -4.1717,0 -6.8264,2.3387 -6.8264,6.068 0,1.833 1.1377,4.3613 3.5396,7.4585 2.2123,2.7811 3.1604,4.6773 3.1604,6.5103 0,2.7812 -1.6434,4.3614 -4.2981,4.3614 -2.9076,0 -4.867,-2.3387 -5.6255,-7.7114 h -0.9481 l -1.1377,9.0387 h 0.9481 c 0.3792,-0.9481 1.0113,-1.2009 1.6434,-1.2009 0.632,0 1.3905,0.063 2.4651,0.5056 1.3273,0.5057 2.149,0.5689 3.0971,0.5689 4.7406,0 8.217,-2.9076 8.217,-7.5849 0,-2.2123 -1.0745,-4.4245 -3.8557,-7.7113 -2.2122,-2.5915 -3.0971,-4.2349 -3.0971,-5.8151 0,-2.0859 1.3905,-3.2236 3.35,-3.2236 2.7811,0 4.4877,1.8962 5.0566,6.5736 h 0.8849 z"
       style="fill:#000000;fill-opacity:1;fill-rule:nonzero;stroke:none"
       transform="matrix(0.32,0,0,0.32,13.44,13.440001)"
       clip-path="url(#clipPath20)" />
    <path
       id="path21"
       d="m 2190.584,1209.234 -0.5689,-0.1897 c -1.3274,2.2123 -2.1491,2.6548 -3.8557,2.6548 h -9.4811 l 6.7,-7.0793 c 3.6028,-3.7924 5.183,-6.8264 5.183,-10.05 0,-3.9821 -2.9075,-7.0792 -7.5217,-7.0792 -4.9302,0 -7.5217,3.2868 -8.4066,8.0273 l 0.8849,0.1896 c 1.5802,-3.982 3.034,-5.2462 5.9415,-5.2462 3.4132,0 5.6255,2.0227 5.6255,5.6887 0,3.4132 -1.4538,6.5104 -5.3094,10.4924 l -7.1425,7.6482 v 0.5056 h 15.8019 z"
       style="fill:#000000;fill-opacity:1;fill-rule:nonzero;stroke:none"
       transform="matrix(0.32,0,0,0.32,13.44,13.440001)"
       clip-path="url(#clipPath22)" />
    <path
       id="path23"
       d="m 2240.3283,1226.616 v -3.7292 h -14.7906 v -14.7906 h -3.7292 v 14.7906 h -14.7906 v 3.7292 h 14.7906 v 14.7906 h 3.7292 v -14.7906 z"
       style="fill:#000000;fill-opacity:1;fill-rule:nonzero;stroke:none"
       transform="matrix(0.32,0,0,0.32,13.44,13.440001)"
       clip-path="url(#clipPath24)" />
    <path
       id="path25"
       d="m 2285.0792,1200.3849 c -2.9707,0.6321 -5.0566,0.9481 -8.6594,1.2642 v 1.0113 c 3.0972,0.063 3.6028,0.2528 3.6028,1.4537 0,0.7585 0.063,1.0114 -0.7585,4.0453 l -2.5915,9.2283 h -0.063 c -0.316,-2.2122 -1.2641,-3.2868 -3.666,-3.2868 -7.3321,0 -16.5604,9.7972 -16.5604,18.9623 0,4.2981 2.4019,6.6368 6.0679,6.6368 3.8557,0 6.7632,-1.8962 10.1132,-7.4585 -0.632,2.7811 -0.7584,3.7293 -0.7584,4.9934 0,1.5802 0.8849,2.5915 2.3386,2.5915 2.8444,0 5.5623,-2.3387 8.3434,-6.5104 l -0.6953,-0.5688 c -3.0339,3.5396 -3.666,4.0452 -4.6141,4.0452 -0.7585,0 -1.0745,-0.4424 -1.0745,-1.1377 0,-0.8849 1.9594,-7.4585 3.7292,-13.9056 l 3.35,-12.4519 2.2123,-8.5963 -0.3161,-0.316 z m -9.3547,18.2038 c 0,8.6594 -5.8783,18.3934 -11.1245,18.3934 -1.9594,0 -3.2868,-1.517 -3.2868,-4.1717 0,-4.6774 2.8443,-10.8717 6.5736,-14.7906 1.6434,-1.6434 3.6028,-2.6547 5.183,-2.6547 1.3274,0 2.6547,1.2009 2.6547,3.2236 z"
       style="fill:#000000;fill-opacity:1;fill-rule:nonzero;stroke:none"
       transform="matrix(0.32,0,0,0.32,13.44,13.440001)"
       clip-path="url(#clipPath26)" />
    <path
       id="path27"
       d="m 2310.6783,1224.7198 c 0,-1.7698 -1.517,-3.4132 -3.35,-3.4132 -1.833,0 -3.4764,1.7066 -3.4764,3.4132 0,1.7066 1.6434,3.4132 3.4764,3.4132 1.833,0 3.35,-1.5802 3.35,-3.4132 z"
       style="fill:#000000;fill-opacity:1;fill-rule:nonzero;stroke:none"
       transform="matrix(0.32,0,0,0.32,13.44,13.440001)"
       clip-path="url(#clipPath28)" />
    <path
       id="path29"
       d="m 2348.666,1214.0377 h -0.7585 c -0.5056,0.7585 -0.8849,1.0114 -1.7066,1.0114 -0.5056,0 -1.0113,-0.063 -2.0858,-0.3793 -1.3906,-0.4424 -2.2123,-0.5689 -3.1604,-0.5689 -4.1717,0 -6.8264,2.3387 -6.8264,6.068 0,1.833 1.1377,4.3613 3.5396,7.4585 2.2123,2.7811 3.1604,4.6773 3.1604,6.5103 0,2.7812 -1.6434,4.3614 -4.2981,4.3614 -2.9076,0 -4.867,-2.3387 -5.6255,-7.7114 h -0.9481 l -1.1377,9.0387 h 0.9481 c 0.3792,-0.9481 1.0113,-1.2009 1.6434,-1.2009 0.632,0 1.3905,0.063 2.4651,0.5056 1.3273,0.5057 2.149,0.5689 3.0971,0.5689 4.7406,0 8.217,-2.9076 8.217,-7.5849 0,-2.2123 -1.0745,-4.4245 -3.8556,-7.7113 -2.2123,-2.5915 -3.0972,-4.2349 -3.0972,-5.8151 0,-2.0859 1.3906,-3.2236 3.35,-3.2236 2.7811,0 4.4877,1.8962 5.0566,6.5736 h 0.8849 z"
       style="fill:#000000;fill-opacity:1;fill-rule:nonzero;stroke:none"
       transform="matrix(0.32,0,0,0.32,13.44,13.440001)"
       clip-path="url(#clipPath30)" />
    <path
       id="path31"
       d="m 2398.5368,1226.616 v -3.7292 h -14.7906 v -14.7906 h -3.7292 v 14.7906 h -14.7906 v 3.7292 h 14.7906 v 14.7906 h 3.7292 v -14.7906 z"
       style="fill:#000000;fill-opacity:1;fill-rule:nonzero;stroke:none"
       transform="matrix(0.32,0,0,0.32,13.44,13.440001)"
       clip-path="url(#clipPath32)" />
    <path
       id="path33"
       d="m 2423.8198,1226.4896 3.0972,-12.2622 -0.1896,-0.063 -8.7859,1.517 v 0.9481 c 0.8849,-0.1264 1.3274,-0.1896 1.7698,-0.1896 1.1378,0 2.1491,0.3161 2.1491,1.517 0,1.1377 -0.063,1.7066 -0.8849,4.6142 l -4.6142,16.5603 h 4.2981 c 2.8444,-9.5443 3.8557,-11.8198 6.3208,-15.9915 2.0226,-3.4764 3.6028,-5.3094 4.6141,-5.3094 0.4425,0 0.5689,0.1896 0.9481,0.7585 0.5057,0.8849 0.9482,1.517 1.9595,1.517 1.7066,0 2.6547,-1.3906 2.6547,-3.0972 0,-1.7066 -1.0745,-2.8444 -2.6547,-2.8444 -1.2642,0 -2.9708,1.0114 -4.4878,2.5283 -2.2754,2.4019 -4.2349,5.4359 -5.3094,7.8378 l -0.8849,1.9594 z"
       style="fill:#000000;fill-opacity:1;fill-rule:nonzero;stroke:none"
       transform="matrix(0.32,0,0,0.32,13.44,13.440001)"
       clip-path="url(#clipPath34)" />
    <g
       id="g34"
       clip-path="url(#clipPath35)" />
    <g
       id="g35"
       clip-path="url(#clipPath36)" />
    <g
       id="g36"
       clip-path="url(#clipPath37)" />
    <path
       id="path38"
       d="M 0,0 H 185 V 56 H 0 Z"
       style="fill:none;stroke:#000000;stroke-width:0.571769;stroke-linecap:butt;stroke-linejoin:miter;stroke-miterlimit:2;stroke-dasharray:none;stroke-opacity:1"
       transform="matrix(1.2944906,0,0,1.2944906,617.96709,356.22038)"
       clip-path="url(#clipPath39)" />
    <path
       id="path40"
       d="M 0,0 H 175 V 56 H 0 Z"
       style="fill:#ffffff;fill-opacity:1;fill-rule:nonzero;stroke:none"
       transform="matrix(1.2944906,0,0,1.2944906,320.23426,356.22038)"
       clip-path="url(#clipPath41)" />
    <g
       id="g41"
       clip-path="url(#clipPath42)" />
    <g
       id="g42"
       clip-path="url(#clipPath43)" />
    <g
       id="g45"
       clip-path="url(#clipPath45)">
      <g
         clip-path="url(#clipPath44)"
         id="g44" />
    </g>
    <g
       id="g46"
       clip-path="url(#clipPath46)" />
    <g
       id="g48"
       clip-path="url(#clipPath48)">
      <g
         clip-path="url(#clipPath47)"
         id="g47" />
    </g>
    <path
       id="path49"
       d="m 1076.0453,1186.4792 h 465.2075 v 4.0453 h -465.2075 z"
       style="fill:#000000;fill-opacity:1;fill-rule:evenodd;stroke:none"
       transform="matrix(0.32,0,0,0.32,13.44,13.440001)"
       clip-path="url(#clipPath50)" />
    <path
       id="path51"
       d="m 1118.584,1133.2585 h -12.5151 v 0.8849 l 1.3905,0.1896 c 1.3274,0.1264 2.0227,0.4425 2.0227,1.0745 0,1.3274 -3.034,4.1717 -8.0906,7.7746 l -8.6594,6.1943 2.9707,-10.9981 c 0.8849,-3.2236 2.6547,-3.9821 5.6255,-4.2349 v -0.8849 h -15.2962 v 0.8849 c 3.4764,0.1896 4.4877,0.8849 4.4877,2.4651 0,0.8849 -0.4424,2.0858 -0.8217,3.4764 l -7.016,25.3462 c -0.8849,2.9708 -1.201,3.6029 -4.6142,4.0453 v 0.8849 H 1092.1 v -0.8849 c -3.1604,-0.316 -4.0453,-0.7585 -4.0453,-2.5283 0,-0.6321 0.1896,-1.3273 0.6321,-2.9075 l 3.666,-13.4632 6.9529,12.199 c 1.0745,1.833 2.149,3.4764 2.149,4.6774 0,0.9481 -0.8849,1.6434 -2.6547,1.833 l -1.6434,0.1896 v 0.8849 h 15.6123 v -0.8849 c -3.6029,-0.3792 -4.1717,-0.6953 -5.8783,-3.7925 l -9.5444,-16.6235 16.8764,-12.8312 c 1.6434,-1.2009 2.9708,-2.0858 4.3614,-2.0858 z"
       style="fill:#000000;fill-opacity:1;fill-rule:nonzero;stroke:none"
       transform="matrix(0.32,0,0,0.32,13.44,13.440001)"
       clip-path="url(#clipPath52)" />
    <path
       id="path53"
       d="m 1144.9415,1131.6151 c -2.9707,0.6321 -5.0566,0.9481 -8.6594,1.2641 v 1.0114 c 3.0971,0.063 3.6028,0.2528 3.6028,1.4537 0,0.7585 0.063,1.0114 -0.7585,4.0453 l -2.5915,9.2283 h -0.063 c -0.316,-2.2122 -1.2642,-3.2868 -3.666,-3.2868 -7.3321,0 -16.5604,9.7972 -16.5604,18.9623 0,4.2981 2.4019,6.6368 6.0679,6.6368 3.8557,0 6.7632,-1.8962 10.1132,-7.4585 -0.6321,2.7811 -0.7585,3.7292 -0.7585,4.9934 0,1.5802 0.8849,2.5915 2.3387,2.5915 2.8443,0 5.5623,-2.3387 8.3434,-6.5104 l -0.6953,-0.5688 c -3.0339,3.5396 -3.666,4.0452 -4.6141,4.0452 -0.7585,0 -1.0746,-0.4424 -1.0746,-1.1377 0,-0.8849 1.9595,-7.4585 3.7293,-13.9057 l 3.35,-12.4518 2.2122,-8.5963 -0.316,-0.316 z m -9.3547,18.2038 c 0,8.6594 -5.8783,18.3934 -11.1245,18.3934 -1.9595,0 -3.2868,-1.517 -3.2868,-4.1717 0,-4.6774 2.8443,-10.8717 6.5736,-14.7906 1.6433,-1.6434 3.6028,-2.6547 5.183,-2.6547 1.3273,0 2.6547,1.2009 2.6547,3.2236 z"
       style="fill:#000000;fill-opacity:1;fill-rule:nonzero;stroke:none"
       transform="matrix(0.32,0,0,0.32,13.44,13.440001)"
       clip-path="url(#clipPath54)" />
    <path
       id="path55"
       d="m 1170.5406,1155.95 c 0,-1.7698 -1.517,-3.4132 -3.35,-3.4132 -1.8331,0 -3.4765,1.7066 -3.4765,3.4132 0,1.7066 1.6434,3.4132 3.4765,3.4132 1.833,0 3.35,-1.5802 3.35,-3.4132 z"
       style="fill:#000000;fill-opacity:1;fill-rule:nonzero;stroke:none"
       transform="matrix(0.32,0,0,0.32,13.44,13.440001)"
       clip-path="url(#clipPath56)" />
    <path
       id="path57"
       d="m 1208.4651,1145.2679 h -0.7585 c -0.5057,0.7585 -0.8849,1.0113 -1.7066,1.0113 -0.5057,0 -1.0113,-0.063 -2.0859,-0.3792 -1.3905,-0.4425 -2.2122,-0.5689 -3.1603,-0.5689 -4.1717,0 -6.8264,2.3387 -6.8264,6.068 0,1.833 1.1377,4.3613 3.5396,7.4584 2.2122,2.7812 3.1604,4.6774 3.1604,6.5104 0,2.7812 -1.6434,4.3613 -4.2982,4.3613 -2.9075,0 -4.8669,-2.3386 -5.6254,-7.7113 h -0.9481 l -1.1378,9.0387 h 0.9481 c 0.3793,-0.9481 1.0114,-1.2009 1.6434,-1.2009 0.6321,0 1.3906,0.063 2.4651,0.5056 1.3274,0.5057 2.1491,0.5689 3.0972,0.5689 4.7406,0 8.217,-2.9076 8.217,-7.5849 0,-2.2123 -1.0746,-4.4245 -3.8557,-7.7113 -2.2122,-2.5916 -3.0972,-4.2349 -3.0972,-5.8151 0,-2.0859 1.3906,-3.2236 3.35,-3.2236 2.7812,0 4.4878,1.8962 5.0566,6.5736 h 0.885 z"
       style="fill:#000000;fill-opacity:1;fill-rule:nonzero;stroke:none"
       transform="matrix(0.32,0,0,0.32,13.44,13.440001)"
       clip-path="url(#clipPath58)" />
    <path
       id="path59"
       d="m 1228.8811,1140.4641 -0.5688,-0.1896 c -1.3274,2.2123 -2.1491,2.6547 -3.8557,2.6547 h -9.4811 l 6.7,-7.0792 c 3.6028,-3.7925 5.183,-6.8264 5.183,-10.05 0,-3.9821 -2.9076,-7.0792 -7.5217,-7.0792 -4.9302,0 -7.5217,3.2867 -8.4066,8.0273 l 0.8849,0.1896 c 1.5802,-3.982 3.034,-5.2462 5.9415,-5.2462 3.4132,0 5.6255,2.0226 5.6255,5.6887 0,3.4132 -1.4538,6.5104 -5.3095,10.4924 l -7.1424,7.6482 v 0.5056 h 15.8019 z"
       style="fill:#000000;fill-opacity:1;fill-rule:nonzero;stroke:none"
       transform="matrix(0.32,0,0,0.32,13.44,13.440001)"
       clip-path="url(#clipPath60)" />
    <path
       id="path61"
       d="m 1278.6255,1157.8462 v -3.7292 h -14.7906 v -14.7906 h -3.7292 v 14.7906 h -14.7906 v 3.7292 h 14.7906 v 14.7906 h 3.7292 v -14.7906 z"
       style="fill:#000000;fill-opacity:1;fill-rule:nonzero;stroke:none"
       transform="matrix(0.32,0,0,0.32,13.44,13.440001)"
       clip-path="url(#clipPath62)" />
    <path
       id="path63"
       d="m 1334.817,1133.2585 h -12.5151 v 0.8849 l 1.3905,0.1896 c 1.3274,0.1264 2.0227,0.4425 2.0227,1.0745 0,1.3274 -3.034,4.1717 -8.0906,7.7746 l -8.6594,6.1943 2.9707,-10.9981 c 0.885,-3.2236 2.6548,-3.9821 5.6255,-4.2349 v -0.8849 h -15.2962 v 0.8849 c 3.4764,0.1896 4.4877,0.8849 4.4877,2.4651 0,0.8849 -0.4424,2.0858 -0.8217,3.4764 l -7.016,25.3462 c -0.8849,2.9708 -1.201,3.6029 -4.6142,4.0453 v 0.8849 h 14.0321 v -0.8849 c -3.1604,-0.316 -4.0453,-0.7585 -4.0453,-2.5283 0,-0.6321 0.1897,-1.3273 0.6321,-2.9075 l 3.666,-13.4632 6.9529,12.199 c 1.0745,1.833 2.149,3.4764 2.149,4.6774 0,0.9481 -0.8849,1.6434 -2.6547,1.833 l -1.6434,0.1896 v 0.8849 h 15.6123 v -0.8849 c -3.6028,-0.3792 -4.1717,-0.6953 -5.8783,-3.7925 l -9.5444,-16.6235 16.8765,-12.8312 c 1.6434,-1.2009 2.9707,-2.0858 4.3613,-2.0858 z"
       style="fill:#000000;fill-opacity:1;fill-rule:nonzero;stroke:none"
       transform="matrix(0.32,0,0,0.32,13.44,13.440001)"
       clip-path="url(#clipPath64)" />
    <path
       id="path65"
       d="m 1343.7924,1146.0264 c 0.063,-0.1896 0.1265,-0.5056 0.1265,-0.5056 0,-0.1265 -0.1265,-0.1897 -0.3161,-0.1897 l -8.849,1.201 0.1264,0.8849 h 1.2641 c 0.8849,0 2.4651,0.1896 2.4651,1.517 0,0.316 -0.2528,1.7698 -0.8849,4.0452 l -6.5104,24.4614 c -0.6952,2.6547 -1.4537,3.5396 -3.8556,3.5396 v 0.9481 h 11.5038 v -0.9481 c -2.6548,0 -3.5397,-0.3793 -3.5397,-1.6434 0,-0.7585 1.3274,-5.4359 2.2755,-9.3547 1.3906,0.6953 2.5915,0.9481 3.9189,0.9481 8.2802,0 16.8132,-9.1651 16.8132,-18.5198 0,-4.4246 -2.3387,-7.0793 -6.5104,-7.0793 -3.4132,0 -6.6368,1.7698 -9.6707,6.384 z m 9.418,6.5104 c 0,3.9821 -1.1378,8.1538 -3.8557,11.9462 -2.5283,3.4764 -5.2462,5.3727 -8.217,5.3727 -1.5802,0 -2.7179,-0.9482 -2.7179,-2.1491 0,-1.9594 2.0226,-9.2283 3.666,-13.5264 1.2642,-3.35 4.6142,-6.4472 7.6482,-6.4472 2.5283,0 3.4764,1.5802 3.4764,4.8038 z"
       style="fill:#000000;fill-opacity:1;fill-rule:nonzero;stroke:none"
       transform="matrix(0.32,0,0,0.32,13.44,13.440001)"
       clip-path="url(#clipPath66)" />
    <path
       id="path67"
       d="m 1384.1821,1155.95 c 0,-1.7698 -1.517,-3.4132 -3.35,-3.4132 -1.833,0 -3.4764,1.7066 -3.4764,3.4132 0,1.7066 1.6434,3.4132 3.4764,3.4132 1.833,0 3.35,-1.5802 3.35,-3.4132 z"
       style="fill:#000000;fill-opacity:1;fill-rule:nonzero;stroke:none"
       transform="matrix(0.32,0,0,0.32,13.44,13.440001)"
       clip-path="url(#clipPath68)" />
    <path
       id="path69"
       d="m 1422.1698,1145.2679 h -0.7585 c -0.5056,0.7585 -0.8849,1.0113 -1.7066,1.0113 -0.5056,0 -1.0113,-0.063 -2.0858,-0.3792 -1.3906,-0.4425 -2.2123,-0.5689 -3.1604,-0.5689 -4.1717,0 -6.8264,2.3387 -6.8264,6.068 0,1.833 1.1377,4.3613 3.5396,7.4584 2.2123,2.7812 3.1604,4.6774 3.1604,6.5104 0,2.7812 -1.6434,4.3613 -4.2981,4.3613 -2.9076,0 -4.867,-2.3386 -5.6255,-7.7113 h -0.9481 l -1.1378,9.0387 h 0.9482 c 0.3792,-0.9481 1.0113,-1.2009 1.6433,-1.2009 0.6321,0 1.3906,0.063 2.4651,0.5056 1.3274,0.5057 2.1491,0.5689 3.0972,0.5689 4.7406,0 8.217,-2.9076 8.217,-7.5849 0,-2.2123 -1.0745,-4.4245 -3.8557,-7.7113 -2.2122,-2.5916 -3.0971,-4.2349 -3.0971,-5.8151 0,-2.0859 1.3905,-3.2236 3.35,-3.2236 2.7811,0 4.4877,1.8962 5.0566,6.5736 h 0.8849 z"
       style="fill:#000000;fill-opacity:1;fill-rule:nonzero;stroke:none"
       transform="matrix(0.32,0,0,0.32,13.44,13.440001)"
       clip-path="url(#clipPath70)" />
    <path
       id="path71"
       d="m 1472.0406,1157.8462 v -3.7292 H 1457.25 v -14.7906 h -3.7292 v 14.7906 h -14.7906 v 3.7292 h 14.7906 v 14.7906 h 3.7292 v -14.7906 z"
       style="fill:#000000;fill-opacity:1;fill-rule:nonzero;stroke:none"
       transform="matrix(0.32,0,0,0.32,13.44,13.440001)"
       clip-path="url(#clipPath72)" />
    <path
       id="path73"
       d="m 1528.2321,1133.2585 h -12.5151 v 0.8849 l 1.3905,0.1896 c 1.3274,0.1264 2.0227,0.4425 2.0227,1.0745 0,1.3274 -3.034,4.1717 -8.0906,7.7746 l -8.6594,6.1943 2.9707,-10.9981 c 0.8849,-3.2236 2.6548,-3.9821 5.6255,-4.2349 v -0.8849 h -15.2962 v 0.8849 c 3.4764,0.1896 4.4877,0.8849 4.4877,2.4651 0,0.8849 -0.4424,2.0858 -0.8217,3.4764 l -7.016,25.3462 c -0.8849,2.9708 -1.201,3.6029 -4.6142,4.0453 v 0.8849 h 14.0321 v -0.8849 c -3.1604,-0.316 -4.0453,-0.7585 -4.0453,-2.5283 0,-0.6321 0.1896,-1.3273 0.6321,-2.9075 l 3.666,-13.4632 6.9529,12.199 c 1.0745,1.833 2.149,3.4764 2.149,4.6774 0,0.9481 -0.8849,1.6434 -2.6547,1.833 l -1.6434,0.1896 v 0.8849 h 15.6123 v -0.8849 c -3.6029,-0.3792 -4.1717,-0.6953 -5.8783,-3.7925 l -9.5444,-16.6235 16.8765,-12.8312 c 1.6433,-1.2009 2.9707,-2.0858 4.3613,-2.0858 z"
       style="fill:#000000;fill-opacity:1;fill-rule:nonzero;stroke:none"
       transform="matrix(0.32,0,0,0.32,13.44,13.440001)"
       clip-path="url(#clipPath74)" />
    <path
       id="path75"
       d="m 1540.0519,1136.3557 c 0,-1.6434 -1.3274,-3.0972 -2.8444,-3.0972 -1.5169,0 -2.6547,1.2009 -2.6547,2.9707 0,1.8331 1.0746,3.034 2.718,3.034 1.4537,0 2.7811,-1.3274 2.7811,-2.9075 z m -2.4019,27.4952 c -2.4651,3.2236 -3.7925,4.4246 -4.7406,4.4246 -0.4424,0 -0.8217,-0.3161 -0.8217,-0.8849 0,-0.7585 0.3161,-1.517 0.5689,-2.4651 l 5.3094,-19.468 -0.1896,-0.1264 c -5.7519,1.0746 -6.8896,1.201 -9.1019,1.3906 v 0.8849 c 3.0972,0.063 3.6661,0.2528 3.6661,1.3906 0,0.4424 -0.2529,1.4537 -0.5057,2.4651 l -2.7179,10.05 c -0.8849,3.1603 -1.2642,5.183 -1.2642,6.3207 0,2.0859 0.8849,3.0972 2.7812,3.0972 2.8443,0 4.6141,-1.7066 7.7745,-6.4472 z"
       style="fill:#000000;fill-opacity:1;fill-rule:nonzero;stroke:none"
       transform="matrix(0.32,0,0,0.32,13.44,13.440001)"
       clip-path="url(#clipPath76)" />
    <path
       id="path77"
       d="m 1319.0151,1214.0377 h -0.7585 c -0.5057,0.7585 -0.8849,1.0114 -1.7066,1.0114 -0.5057,0 -1.0113,-0.063 -2.0859,-0.3793 -1.3905,-0.4424 -2.2122,-0.5689 -3.1603,-0.5689 -4.1717,0 -6.8264,2.3387 -6.8264,6.068 0,1.833 1.1377,4.3613 3.5396,7.4585 2.2122,2.7811 3.1604,4.6773 3.1604,6.5103 0,2.7812 -1.6434,4.3614 -4.2982,4.3614 -2.9075,0 -4.8669,-2.3387 -5.6254,-7.7114 h -0.9481 l -1.1378,9.0387 h 0.9481 c 0.3793,-0.9481 1.0114,-1.2009 1.6434,-1.2009 0.6321,0 1.3906,0.063 2.4651,0.5056 1.3274,0.5057 2.1491,0.5689 3.0972,0.5689 4.7406,0 8.217,-2.9076 8.217,-7.5849 0,-2.2123 -1.0746,-4.4245 -3.8557,-7.7113 -2.2122,-2.5915 -3.0972,-4.2349 -3.0972,-5.8151 0,-2.0859 1.3906,-3.2236 3.35,-3.2236 2.7812,0 4.4878,1.8962 5.0566,6.5736 h 0.885 z"
       style="fill:#000000;fill-opacity:1;fill-rule:nonzero;stroke:none"
       transform="matrix(0.32,0,0,0.32,13.44,13.440001)"
       clip-path="url(#clipPath78)" />
    <g
       id="g78"
       clip-path="url(#clipPath79)" />
    <g
       id="g79"
       clip-path="url(#clipPath80)" />
    <g
       id="g80"
       clip-path="url(#clipPath81)" />
    <path
       id="path82"
       d="M 0,0 H 175 V 56 H 0 Z"
       style="fill:none;stroke:#000000;stroke-width:0.571769;stroke-linecap:butt;stroke-linejoin:miter;stroke-miterlimit:2;stroke-dasharray:none;stroke-opacity:1"
       transform="matrix(1.2944906,0,0,1.2944906,320.23426,356.22038)"
       clip-path="url(#clipPath83)" />
    <path
       id="path84"
       d="m 655.33585,1184.4566 c 0,22.3415 -18.11135,40.4528 -40.45283,40.4528 -22.34148,0 -40.45283,-18.1113 -40.45283,-40.4528 0,-22.3415 18.11135,-40.4528 40.45283,-40.4528 22.34148,0 40.45283,18.1113 40.45283,40.4528 z"
       style="fill:#ffffff;fill-opacity:1;fill-rule:nonzero;stroke:none"
       transform="matrix(0.32,0,0,0.32,13.44,13.440001)"
       clip-path="url(#clipPath85)" />
    <g
       id="g85"
       clip-path="url(#clipPath86)" />
    <text
       id="text86"
       xml:space="preserve"
       transform="matrix(1.2944906,0,0,1.2944906,199.968,396.99683)"
       clip-path="url(#clipPath87)"><tspan
         style="font-variant:normal;font-weight:normal;font-size:10px;font-family:'Liberation Sans';writing-mode:lr-tb;fill:#000000;fill-opacity:1;fill-rule:nonzero;stroke:none"
         x="0"
         y="0"
         id="tspan86">+</tspan></text>
    <text
       id="text87"
       xml:space="preserve"
       transform="matrix(1.2944906,0,0,1.2944906,206.44045,403.46928)"
       clip-path="url(#clipPath88)"><tspan
         style="font-variant:normal;font-weight:normal;font-size:10px;font-family:'Liberation Sans';writing-mode:lr-tb;fill:#000000;fill-opacity:1;fill-rule:nonzero;stroke:none"
         x="0"
         y="0"
         id="tspan87">−</tspan></text>
    <path
       id="path89"
       d="M 20,10 C 20,15.522847 15.522847,20 10,20 4.4771525,20 0,15.522847 0,10 0,4.4771525 4.4771525,0 10,0 15.522847,0 20,4.4771525 20,10 Z"
       style="fill:none;stroke:#000000;stroke-width:0.571769;stroke-linecap:butt;stroke-linejoin:miter;stroke-miterlimit:2;stroke-dasharray:none;stroke-opacity:1"
       transform="matrix(1.2944906,0,0,1.2944906,197.25766,379.52121)"
       clip-path="url(#clipPath90)" />
    <path
       id="path91"
       d="M 0,0 H 30 V 30 H 0 Z"
       style="fill:#ffffff;fill-opacity:1;fill-rule:nonzero;stroke:none"
       transform="matrix(1.2944906,0,0,1.2944906,16.028981,373.04875)"
       clip-path="url(#clipPath92)" />
    <g
       id="g92"
       clip-path="url(#clipPath93)" />
    <g
       id="g93"
       clip-path="url(#clipPath94)" />
    <g
       id="g96"
       clip-path="url(#clipPath96)">
      <g
         clip-path="url(#clipPath95)"
         id="g95" />
    </g>
    <g
       id="g97"
       clip-path="url(#clipPath97)" />
    <g
       id="g99"
       clip-path="url(#clipPath99)">
      <g
         clip-path="url(#clipPath98)"
         id="g98" />
    </g>
    <path
       id="path100"
       d="M 4.5000001,26.500001 H 16.5 V 6.5000008 h 12.000001"
       style="fill:none;stroke:#000000;stroke-width:1;stroke-linecap:round;stroke-linejoin:round;stroke-miterlimit:10;stroke-dasharray:none;stroke-opacity:1"
       transform="matrix(1.2944906,0,0,1.2944906,14.734361,371.75414)"
       clip-path="url(#clipPath101)" />
    <g
       id="g101"
       clip-path="url(#clipPath102)" />
    <g
       id="g102"
       clip-path="url(#clipPath103)" />
    <g
       id="g103"
       clip-path="url(#clipPath104)" />
    <path
       id="path105"
       d="M 0,0 H 30 V 30 H 0 Z"
       style="fill:none;stroke:#000000;stroke-width:0.571769;stroke-linecap:butt;stroke-linejoin:miter;stroke-miterlimit:2;stroke-dasharray:none;stroke-opacity:1"
       transform="matrix(1.2944906,0,0,1.2944906,16.028981,373.04875)"
       clip-path="url(#clipPath106)" />
    <path
       id="path107"
       d="M 0,0 H 30 V 32 H 0 Z"
       style="fill:#ffffff;fill-opacity:1;fill-rule:nonzero;stroke:none"
       transform="matrix(1.2944906,0,0,1.2944906,999.84181,371.75426)"
       clip-path="url(#clipPath108)" />
    <g
       id="g108"
       clip-path="url(#clipPath109)" />
    <g
       id="g109"
       clip-path="url(#clipPath110)" />
    <g
       id="g112"
       clip-path="url(#clipPath112)">
      <g
         clip-path="url(#clipPath111)"
         id="g111" />
    </g>
    <g
       id="g113"
       clip-path="url(#clipPath113)" />
    <g
       id="g115"
       clip-path="url(#clipPath115)">
      <g
         clip-path="url(#clipPath114)"
         id="g114" />
    </g>
    <path
       id="path116"
       d="M 7.4999999,5.5000039 H 25.500001 c 1.10457,0 2,0.9551254 2,2.1333333 v 9.7333338 c 0,1.178208 -0.89543,2.133333 -2,2.133333 H 7.4999999 c -1.10457,0 -2,-0.955125 -2,-2.133333 V 7.6333372 c 0,-1.1782079 0.89543,-2.1333333 2,-2.1333333 z"
       style="fill:none;stroke:#000000;stroke-width:1.3;stroke-linecap:round;stroke-linejoin:round;stroke-miterlimit:10;stroke-dasharray:none;stroke-opacity:1"
       transform="matrix(1.2944906,0,0,1.2944906,998.54719,370.45964)"
       clip-path="url(#clipPath117)" />
    <g
       id="g117"
       clip-path="url(#clipPath118)" />
    <g
       id="g118"
       clip-path="url(#clipPath119)" />
    <g
       id="g119"
       clip-path="url(#clipPath120)" />
    <path
       id="path121"
       d="M 0,0 H 30 V 32 H 0 Z"
       style="fill:none;stroke:#000000;stroke-width:0.571769;stroke-linecap:butt;stroke-linejoin:miter;stroke-miterlimit:2;stroke-dasharray:none;stroke-opacity:1"
       transform="matrix(1.2944906,0,0,1.2944906,999.84181,371.75426)"
       clip-path="url(#clipPath122)" />
    <path
       id="path123"
       d="m 1889.1472,1184.4566 -32.3623,-16.1811 v 32.3622 z"
       style="fill:#000000;fill-opacity:1;fill-rule:nonzero;stroke:none"
       transform="matrix(0.32,0,0,0.32,13.44,13.440001)"
       clip-path="url(#clipPath124)" />
    <path
       id="path125"
       d="m 200.20849,235.01073 h 46.87873"
       style="fill:none;stroke:#000000;stroke-width:0.247201;stroke-linecap:butt;stroke-linejoin:miter;stroke-miterlimit:2;stroke-dasharray:none;stroke-opacity:1"
       transform="matrix(1.2944906,0,0,1.2944906,287.872,88.260831)"
       clip-path="url(#clipPath126)" />
    <path
       id="path127"
       d="m 958.73207,1184.4566 -32.36226,-16.1811 v 32.3622 z"
       style="fill:#000000;fill-opacity:1;fill-rule:nonzero;stroke:none"
       transform="matrix(0.32,0,0,0.32,13.44,13.440001)"
       clip-path="url(#clipPath128)" />
    <path
       id="path129"
       d="M -49.959422,235.01073 H 17.189832"
       style="fill:none;stroke:#000000;stroke-width:0.247201;stroke-linecap:butt;stroke-linejoin:miter;stroke-miterlimit:2;stroke-dasharray:none;stroke-opacity:1"
       transform="matrix(1.2944906,0,0,1.2944906,287.872,88.260831)"
       clip-path="url(#clipPath130)" />
    <path
       id="path131"
       d="m 574.43019,1184.4566 -32.36227,-16.1811 v 32.3622 z"
       style="fill:#000000;fill-opacity:1;fill-rule:nonzero;stroke:none"
       transform="matrix(0.32,0,0,0.32,13.44,13.440001)"
       clip-path="url(#clipPath132)" />
    <path
       id="path133"
       d="M -179.98741,235.01073 H -77.982742"
       style="fill:none;stroke:#000000;stroke-width:0.247201;stroke-linecap:butt;stroke-linejoin:miter;stroke-miterlimit:2;stroke-dasharray:none;stroke-opacity:1"
       transform="matrix(1.2944906,0,0,1.2944906,287.872,88.260831)"
       clip-path="url(#clipPath134)" />
    <path
       id="path135"
       d="m 439.99394,235.01073 h 24.22574"
       style="fill:none;stroke:#000000;stroke-width:0.247201;stroke-linecap:butt;stroke-linejoin:miter;stroke-miterlimit:2;stroke-dasharray:none;stroke-opacity:1"
       transform="matrix(1.2944906,0,0,1.2944906,287.872,88.260831)"
       clip-path="url(#clipPath136)" />
    <path
       id="path137"
       d="m 614.88302,1224.9094 -16.18113,32.3623 h 32.36226 z"
       style="fill:#000000;fill-opacity:1;fill-rule:nonzero;stroke:none"
       transform="matrix(0.32,0,0,0.32,13.44,13.440001)"
       clip-path="url(#clipPath138)" />
    <path
       id="path139"
       d="m 464.21968,235.01073 v 51.91231 H -59.847481 v -33.77705"
       style="fill:none;stroke:#000000;stroke-width:0.247201;stroke-linecap:butt;stroke-linejoin:miter;stroke-miterlimit:2;stroke-dasharray:none;stroke-opacity:1"
       transform="matrix(1.2944906,0,0,1.2944906,287.872,88.260831)"
       clip-path="url(#clipPath140)" />
    <path
       id="path141"
       d="m 3082.5057,1184.4566 -32.3623,-16.1811 v 32.3622 z"
       style="fill:#000000;fill-opacity:1;fill-rule:nonzero;stroke:none"
       transform="matrix(0.32,0,0,0.32,13.44,13.440001)"
       clip-path="url(#clipPath142)" />
    <path
       id="path143"
       d="M 464.21968,235.01073 H 541.9986"
       style="fill:none;stroke:#000000;stroke-width:0.247201;stroke-linecap:butt;stroke-linejoin:miter;stroke-miterlimit:2;stroke-dasharray:none;stroke-opacity:1"
       transform="matrix(1.2944906,0,0,1.2944906,287.872,88.260831)"
       clip-path="url(#clipPath144)" />
    <path
       id="path145"
       d="m 2741.75,1184.5 c 0,3.4518 -2.7982,6.25 -6.25,6.25 -3.4518,0 -6.25,-2.7982 -6.25,-6.25 0,-3.4518 2.7982,-6.25 6.25,-6.25 3.4518,0 6.25,2.7982 6.25,6.25 z"
       style="fill:#000000;fill-opacity:1;fill-rule:evenodd;stroke:none"
       transform="matrix(0.32,0,0,0.32,13.44,13.440001)"
       clip-path="url(#clipPath146)" />
  </g>
</svg>
